<svg xmlns="http://www.w3.org/2000/svg" width="137" height="29" viewBox="0 0 137 29" fill="none"><path d="M89.175 0.938477V4.73287H84.7457V25.2059H89.175V29.0003H80.6328V0.938477H89.175Z" fill="#FFBB03"></path><path d="M88.5445 21.1408L91.181 18.0761C92.9949 19.9525 94.8299 20.7864 96.8758 20.7864C98.6264 20.7864 99.7021 20.1818 99.7021 19.1394C99.7021 18.1804 98.7741 17.68 96.4118 17.1171C91.7294 16.0539 89.7046 14.2818 89.7046 11.363C89.7046 7.98556 92.3832 5.87988 96.6016 5.87988C99.3857 5.87988 101.98 6.79721 103.963 8.63186L101.474 11.6132C99.8076 10.1121 98.1413 9.50749 96.3907 9.50749C94.8299 9.50749 93.944 10.0495 93.944 11.0086C93.944 11.9676 94.7666 12.4263 97.0867 12.9266C102.043 14.0316 104.026 15.9079 104.026 18.785C104.026 22.2667 101.115 24.414 96.5805 24.414C93.3324 24.414 90.5061 23.3091 88.5234 21.12L88.5445 21.1408Z" fill="#FFBB03"></path><path d="M108.597 5.96289L116.506 15.2404L124.289 5.96289H126.229V23.9758H121.969V14.5941L117.202 20.2648H115.641L110.917 14.6775V23.9758H106.656V5.96289H108.597Z" fill="#FFBB03"></path><path d="M131.908 25.2059V4.73287H127.5V0.938477H136.021V29.0003H127.5V25.2059H131.908Z" fill="#FFBB03"></path><path d="M18.3516 15.1564C18.3516 9.98602 22.5066 5.87891 27.7796 5.87891C33.0526 5.87891 37.1655 9.98602 37.1655 15.1564C37.1655 20.3268 33.0104 24.4339 27.7796 24.4339C22.5488 24.4339 18.3516 20.3268 18.3516 15.1564ZM32.8205 15.1564C32.8205 12.0917 30.7325 9.84009 27.7796 9.84009C24.8267 9.84009 22.6965 12.0709 22.6965 15.1564C22.6965 18.242 24.7846 20.4727 27.7796 20.4727C30.7746 20.4727 32.8205 18.2211 32.8205 15.1564Z" fill="white"></path><path d="M0.0210918 15.2821C0.0210918 9.98666 4.17618 5.90039 9.51241 5.90039C12.5707 5.90039 15.2916 7.19299 17.1055 9.50715L14.1104 12.2174C12.866 10.6538 11.3263 9.84072 9.49131 9.84072C6.49628 9.84072 4.34491 12.0923 4.34491 15.157C4.34491 18.2217 6.51737 20.4734 9.57568 20.4734C11.4318 20.4734 13.0347 19.6603 14.3424 18.055L17.2531 20.7444C15.4392 23.0377 12.6762 24.4137 9.42804 24.4137C4.04963 24.4137 0 20.4734 0 15.2613L0.0210918 15.2821Z" fill="white"></path><path d="M53.301 0V8.04745C51.8879 6.67146 49.9052 5.90007 47.7328 5.90007C42.7762 5.90007 38.9375 10.0072 38.9375 15.1776C38.9375 20.348 42.6918 24.4551 47.543 24.4551C50.0529 24.4551 52.1199 23.3501 53.4698 21.7656V23.9964H57.5405V0H53.301ZM48.4077 20.5981C45.4971 20.5981 43.2824 18.3465 43.2824 15.1567C43.2824 11.9669 45.4971 9.71531 48.4077 9.71531C51.3184 9.71531 53.5541 11.9669 53.5541 15.1567C53.5541 18.3465 51.3817 20.5981 48.4077 20.5981Z" fill="white"></path><path d="M77.7445 14.6775C77.7445 9.46545 73.9479 5.90039 68.9914 5.90039C63.7606 5.90039 59.9219 9.84072 59.9219 15.2196C59.9219 20.5985 63.8449 24.4554 69.3077 24.4554C72.5348 24.4554 75.3822 23.1836 77.3015 20.7861L74.665 18.1383C73.3784 19.702 71.67 20.5151 69.5397 20.5151C66.5869 20.5151 64.8152 18.9723 64.3512 16.4079H77.5968C77.7234 15.6782 77.7445 15.2613 77.7445 14.6775ZM64.3722 13.1348C64.8785 10.7997 66.5025 9.34036 68.8648 9.34036C71.2271 9.34036 72.809 10.6747 73.3152 13.1348H64.3722Z" fill="white"></path></svg>